<?xml version="1.0" standalone="no"?>
<!DOCTYPE svg PUBLIC "-//W3C//DTD SVG 20010904//EN"
 "http://www.w3.org/TR/2001/REC-SVG-20010904/DTD/svg10.dtd">
<svg version="1.0" xmlns="http://www.w3.org/2000/svg"
 width="256.000000pt" height="256.000000pt" viewBox="0 0 256.000000 256.000000"
 preserveAspectRatio="xMidYMid meet">
<metadata>
Created by potrace 1.14, written by Peter Selinger 2001-2017
</metadata>
<g transform="translate(0.000000,256.000000) scale(0.100000,-0.100000)"
fill="#000000" stroke="none">
<path d="M0 1280 l0 -1250 1280 0 1280 0 0 1250 0 1250 -1280 0 -1280 0 0
-1250z m2451 1130 c0 -8 1 -522 2 -1143 2 -996 0 -1127 -13 -1128 -96 -4
-2322 0 -2327 4 -3 4 -7 518 -7 1142 l-1 1134 25 3 c14 2 541 3 1172 3 1013 0
1148 -2 1149 -15z"/>
<path d="M1230 1280 l0 -876 50 0 50 0 0 876 0 876 -50 0 -50 0 0 -876z"/>
<path d="M523 1602 c-8 -20 -16 -43 -18 -51 -2 -9 -33 -101 -70 -206 -125
-358 -144 -415 -137 -416 4 -1 39 -2 79 -3 l72 -2 28 80 28 81 127 1 127 1 26
-79 c15 -43 30 -79 33 -79 24 -6 152 -4 152 2 0 7 -56 172 -70 204 -4 11 -43
124 -85 250 -43 127 -81 234 -86 239 -5 6 -50 11 -100 12 l-91 2 -15 -36z
m189 -377 c3 -18 -3 -20 -83 -20 l-86 0 24 75 c13 41 31 98 40 125 8 28 18 54
21 59 5 10 78 -198 84 -239z"/>
<path d="M1610 1281 l0 -356 225 0 c143 0 225 4 226 10 1 5 2 34 3 63 l1 52
-152 0 c-152 0 -153 0 -154 23 0 12 0 63 1 112 1 50 1 101 0 115 -1 14 -2 95
-3 180 l-2 155 -72 1 -73 0 0 -355z"/>
</g>
</svg>
