<svg viewBox="0 0 494 120" fill="none" xmlns="http://www.w3.org/2000/svg">
    <path
        d="M32.6268 2.19696C18.6439 7.50726 9.7215 15.6056 3.7288 28.3504C0.5327 35.2539 0 37.909 0 48.2642C0 58.7521 0.5327 61.1418 3.7288 67.9125C8.3897 77.2056 17.8449 87.0301 26.501 91.1451C32.3605 94.1991 46.7429 97.1191 49.0068 95.7921C49.5395 95.5261 49.939 85.1711 49.939 72.6918V50.2556H72.4449C84.9633 50.2556 95.3503 49.7245 95.7493 49.0608C97.0813 47.0694 94.0183 32.997 90.9553 26.6245C86.6943 17.9952 76.7063 8.30385 67.5176 4.05555C57.7961 -0.458245 41.8156 -1.38754 32.6268 2.19696ZM45.9439 47.4677C45.9439 71.6297 45.5444 91.5431 45.0117 91.8091C42.881 93.0041 29.1644 88.4901 23.1717 84.6401C16.2468 80.259 12.1185 75.4797 7.1912 66.1866C2.7966 57.8228 2.6634 39.3694 6.9249 30.0763C13.5834 15.7383 28.898 4.58656 43.0141 3.92276L45.9439 3.79006V47.4677ZM58.4619 4.98486C59.261 6.17966 52.3361 14.4108 50.738 14.4108C50.3385 14.4108 49.939 12.0211 49.939 9.10036C49.939 4.05556 50.2054 3.79006 53.801 3.79006C56.0649 3.79006 58.0624 4.32106 58.4619 4.98486ZM70.7136 10.5608C71.5127 12.0211 53.1351 31.6694 51.0044 31.6694C50.3385 31.6694 49.939 29.4125 49.939 26.6245C49.939 22.3763 51.0044 20.6504 57.3966 14.1452C63.5224 7.90555 65.3868 6.71076 67.3844 7.77276C68.7161 8.56936 70.181 9.76416 70.7136 10.5608ZM79.7693 17.4642C80.9673 19.4556 79.2363 21.7125 67.7839 32.997C53.6678 46.9366 49.939 48.928 49.939 42.6883C49.939 39.9004 52.7356 36.1832 62.3239 26.6245C68.9824 19.8539 75.3746 14.5435 76.44 14.6763C77.5053 14.9418 78.9703 16.1366 79.7693 17.4642ZM86.6943 27.1556C87.4933 30.0763 86.4273 31.8021 79.7693 38.4401C72.9776 45.2108 71.3795 46.2728 66.9849 46.2728C64.1883 46.2728 61.9244 45.8745 61.9244 45.3435C61.9244 43.6177 82.4323 23.7039 84.1643 23.7039C85.0963 23.7039 86.2943 25.297 86.6943 27.1556ZM91.4883 40.9625L91.8873 45.609L85.6283 46.0073C82.0333 46.2728 79.2363 46.0073 79.2363 45.3435C79.2363 43.4849 89.0913 34.3245 90.0233 35.3866C90.5563 35.9177 91.2223 38.4401 91.4883 40.9625Z"
        fill="currentColor"/>
    <path
        d="M22.3728 32.5987C21.8401 33.9263 20.3752 35.7848 19.0435 36.7141C14.2494 40.1659 16.9128 48.1314 23.305 49.5917C26.3679 50.2555 27.3001 51.1848 27.3001 53.7072C27.3001 57.2917 24.7698 57.8229 20.6416 55.3004C16.7796 52.9108 15.7142 55.1677 19.0435 58.6194C20.6416 60.3453 21.9733 62.4693 21.9733 63.2659C21.9733 65.921 24.6367 64.9918 27.9659 61.1418C29.9635 59.0177 31.162 55.8314 31.2952 53.309C31.2952 49.5917 30.6294 48.6624 26.3679 46.671C21.0411 44.1486 19.0435 40.1659 22.6391 38.8383C23.7045 38.3072 25.8352 38.9711 27.1669 40.166C28.4986 41.3608 29.9635 42.2901 30.363 42.2901C32.2274 42.2901 31.162 38.5728 28.6318 36.3159C27.1669 34.9883 25.9684 33.1297 25.9684 32.0676C25.9684 29.5452 23.4381 29.9435 22.3728 32.5987Z"
        fill="currentColor"/>
    <path
        d="M53.9341 78.6659C53.9341 92.2071 54.3336 103.492 54.9994 103.757C55.9316 104.421 64.9872 103.093 71.2463 101.5C74.176 100.837 74.8419 101.368 77.6383 107.209C79.2363 110.661 80.5683 114.909 80.5683 116.369C80.5683 119.157 81.2343 119.29 90.5563 119.29H100.544V114.909C100.544 112.652 102.142 105.616 103.873 99.5091C107.735 86.4991 108.001 77.4711 105.071 67.647C104.006 63.9297 103.207 59.4159 103.473 57.8228C103.873 54.9021 103.74 54.9021 78.9703 54.5039L53.9341 54.2383V78.6659ZM98.9453 58.7521C100.677 59.8142 98.6793 68.709 95.2173 75.4797C92.4203 80.9228 89.8903 83.3121 89.8903 80.6573C89.8903 78.5332 85.7623 75.6125 82.6993 75.4797C77.6383 75.4797 75.2414 79.3297 75.2414 87.5611C75.2414 96.1901 74.4424 96.9871 64.7209 99.2431C60.9921 100.04 58.9946 100.04 58.3287 98.9781C57.2633 97.2521 56.5975 68.709 57.5297 62.2039L58.1955 57.5573L77.9043 57.6901C88.6913 57.8228 98.1463 58.2211 98.9453 58.7521ZM103.34 77.0728C103.74 85.1711 103.074 89.4191 99.3453 102.031L95.4833 114.643L90.0233 115.042C85.6283 115.44 84.5633 115.042 84.5633 113.316C84.5633 112.121 83.3643 109.599 81.9003 107.74C79.6363 104.952 79.2363 102.297 79.2363 92.4731C79.2363 83.0471 79.6363 80.5245 81.3673 79.8608C82.4323 79.4625 83.8973 79.5952 84.5633 80.259C85.6283 81.4541 87.0933 89.4191 87.2263 94.9951C87.2263 96.7211 87.8923 98.0491 88.5583 98.0491C89.3573 98.0491 89.8903 96.3231 89.8903 94.0661C89.8903 91.5431 91.6213 87.8261 94.4183 84.1091C96.9483 80.9228 99.3453 76.9401 99.8783 75.4797C101.209 71.3642 103.207 72.2935 103.34 77.0728Z"
        fill="currentColor"/>
    <path
        d="M118.498 7.34701C118.099 8.27631 117.966 32.3056 118.099 60.7159C118.365 100.676 118.898 112.492 120.229 113.023C122.36 113.687 122.627 7.74531 120.496 6.41771C119.697 6.01941 118.898 6.41771 118.498 7.34701Z"
        fill="currentColor"/>
    <path
        d="M146.817 44.5274C145.619 45.4567 132.967 73.0705 132.967 74.7964C132.967 75.1947 135.098 75.4602 137.628 75.4602C140.824 75.4602 142.556 74.6636 143.621 72.805C144.82 70.6809 146.418 70.1498 152.277 70.1498C158.27 70.1498 159.602 70.5481 160.267 72.805C160.933 74.9291 162.265 75.4602 166.393 75.4602C169.723 75.4602 171.587 74.7964 171.587 73.7343C171.454 72.9378 168.657 65.9016 165.195 58.2016L158.936 44.2619L153.609 43.8636C150.679 43.7309 147.616 43.9964 146.817 44.5274ZM154.941 59.1309C155.606 61.786 155.34 62.1843 152.41 62.1843C148.415 62.1843 148.415 62.1843 150.546 57.5378C152.144 53.9533 153.476 54.3516 154.941 59.1309Z"
        fill="currentColor"/>
    <path
        d="M196.355 43.3903C186.234 45.6472 181.573 51.8868 182.771 61.5782C183.97 71.9334 193.159 77.9075 205.41 76.0489C216.064 74.4558 222.989 63.3041 213.267 63.3041C211.137 63.3041 208.34 64.4989 207.008 65.9593C201.681 71.8006 193.025 67.5524 193.025 59.0558C193.025 54.8075 197.154 50.0282 200.882 50.0282C202.214 50.0282 204.878 51.223 206.742 52.6834C210.071 55.3386 216.33 56.2679 217.396 54.2765C217.795 53.7455 217.529 52.0196 216.863 50.4265C214.999 45.2489 204.212 41.5317 196.355 43.3903Z"
        fill="currentColor"/>
    <path
        d="M229.369 45.3735C228.969 46.3028 228.836 53.339 228.969 61.039L229.369 74.8459L234.429 75.2442L239.356 75.6425V69.5356C239.356 63.5615 239.49 63.4287 242.952 63.827C245.749 64.0925 247.48 65.6856 249.744 69.8011C252.54 74.9787 253.339 75.5097 258.133 75.5097C260.93 75.5097 263.327 74.9787 263.327 74.3149C263.327 73.6511 261.196 70.0666 258.666 66.2166C254.005 59.3132 253.073 56.9235 255.071 56.9235C256.402 56.9235 261.995 47.2321 261.995 45.108C261.995 44.3115 259.865 43.6477 257.334 43.6477C253.206 43.6477 252.141 44.3115 248.945 49.6218C246.414 53.7373 244.55 55.5959 242.419 55.5959C239.889 55.5959 239.49 54.7994 239.09 49.8873C238.691 44.7097 238.424 44.3115 234.296 43.9132C231.632 43.6477 229.768 44.1787 229.369 45.3735Z"
        fill="currentColor"/>
    <path
        d="M275.259 44.6368C274.726 45.0351 274.326 52.2041 274.326 60.5679V75.5696H289.641C302.426 75.5696 305.222 75.1713 305.888 73.4454C307.22 69.861 303.89 68.2679 294.568 68.2679C287.244 68.2679 285.646 67.8696 285.246 66.011C284.847 64.1523 286.046 63.7541 292.571 63.3558C299.762 62.9575 300.295 62.692 300.295 59.6385C300.295 56.5851 299.762 56.3196 292.704 55.9213C286.978 55.6558 284.98 54.992 284.98 53.6644C284.98 52.0713 287.111 51.673 294.835 51.673C303.624 51.673 304.823 51.4075 305.622 49.0179C306.021 47.5575 306.021 45.8317 305.622 45.0351C304.689 43.5748 276.724 43.1765 275.259 44.6368Z"
        fill="currentColor"/>
    <path
        d="M317.676 46.6906C317.277 48.4165 317.011 55.4527 317.277 62.3562L317.676 74.9682L322.737 75.3665C327.398 75.7648 327.664 75.632 327.664 71.9148C327.664 68.1975 327.931 68.0648 336.054 67.2682C342.979 66.4717 344.843 65.6751 348.039 62.3562C352.168 57.7096 352.434 55.851 349.637 50.4079C347.107 45.6286 341.248 43.77 328.064 43.77C319.141 43.77 318.342 44.0355 317.676 46.6906ZM340.182 53.8596C341.514 57.3113 338.451 59.701 332.858 59.701C327.931 59.701 327.664 59.4355 327.664 55.7182C327.664 51.8682 327.931 51.7355 333.524 51.7355C337.652 51.7355 339.65 52.3993 340.182 53.8596Z"
        fill="currentColor"/>
    <path
        d="M376.042 43.3549C366.188 45.6118 360.994 53.5773 362.858 63.5342C364.856 74.2876 379.505 79.8638 391.091 74.4204C397.616 71.367 399.614 67.7826 399.614 59.8171C399.614 54.2412 398.948 51.9842 396.284 48.798C394.42 46.6739 391.756 44.5497 390.558 44.1514C385.098 42.6911 380.037 42.2928 376.042 43.3549ZM386.03 52.117C388.294 53.7101 388.96 55.4359 388.96 59.9497C388.96 66.3221 386.696 68.579 380.437 68.579C373.645 68.579 370.449 57.8256 375.643 52.648C378.839 49.4618 382.035 49.329 386.03 52.117Z"
        fill="currentColor"/>
    <path
        d="M411.546 44.6562C411.013 45.0545 410.614 52.2235 410.614 60.5873V75.589H423.132C437.781 75.589 442.175 74.2614 444.04 69.3493C445.105 66.4286 444.839 65.1011 442.575 62.0476C440.444 59.1269 440.178 57.7993 441.243 55.6752C443.374 51.5597 441.51 47.7097 436.449 45.5855C431.921 43.7269 413.144 42.9304 411.546 44.6562ZM431.788 52.489C433.12 53.6838 429.791 55.6752 426.062 55.6752C420.868 55.6752 419.403 54.6131 421.534 52.0907C422.866 50.4976 429.791 50.7631 431.788 52.489ZM433.12 64.4373C436.715 65.6321 431.788 68.9511 426.461 68.9511C422.333 68.9511 421.268 68.42 421.268 66.5614C421.268 65.2338 421.667 63.7735 422.067 63.3752C422.732 62.5786 429.657 63.2424 433.12 64.4373Z"
        fill="currentColor"/>
    <path
        d="M467.186 46.5679C466.52 48.2938 463.856 54.1351 461.326 59.5782C454.135 75.3765 454.002 75.5093 459.595 75.5093C462.924 75.5093 464.655 74.7127 465.721 72.8541C466.919 70.73 468.517 70.1989 474.377 70.1989C480.369 70.1989 481.701 70.5972 482.367 72.8541C483.033 74.9782 484.365 75.5093 488.493 75.5093C491.822 75.5093 493.687 74.8455 493.553 73.7834C493.553 72.9869 490.757 65.9507 487.294 58.2507L480.902 44.311L474.643 43.9127C469.183 43.5145 468.251 43.9127 467.186 46.5679ZM477.706 61.1714C477.706 61.8351 476.241 62.2334 474.377 62.2334C470.781 62.2334 470.248 60.9058 472.512 56.6576C473.977 53.8696 474.11 53.8696 475.842 57.0558C476.774 58.7817 477.573 60.6403 477.706 61.1714Z"
        fill="currentColor"/>
</svg>
